<svg width="1314" height="290" viewBox="0 0 1314 290" fill="none" xmlns="http://www.w3.org/2000/svg">
<path d="M125.64 130.121L125.626 106.201C125.626 104.778 125.062 103.411 124.055 102.404L103.375 81.6575L88.9463 97.5958L122.664 131.354C123.764 132.455 125.642 131.674 125.642 130.119L125.64 130.121Z" fill="white"/>
<path d="M79.9546 187.793L39.3121 147.188L24.7871 162.985L78.5513 216.765C79.6501 217.864 81.5267 217.086 81.5267 215.53V191.592C81.5267 190.167 80.9608 188.801 79.9546 187.793Z" fill="white"/>
<path d="M134.095 0.361342C61.149 5.40681 2.85177 65.8619 0.10481 139.019C-2.57631 210.451 46.4821 270.886 112.718 285.712L24.4138 197.286C23.1484 196.018 22.4384 194.299 22.4426 192.506L22.5085 163.939C22.5105 162.745 23.953 162.148 24.7945 162.993L39.3194 147.195C38.4079 146.283 38.4079 144.801 39.3194 143.89L53.2908 129.934C54.2024 129.023 55.6777 129.025 56.5872 129.934L103.789 177.196C105.796 179.204 106.922 181.928 106.922 184.767V234.079C106.922 241.182 109.741 247.995 114.757 253.018L150.747 289.054C159.889 288.662 168.801 287.409 177.418 285.387L131.825 239.722C129.569 237.463 128.302 234.4 128.302 231.207V183.554C128.302 175.742 125.203 168.248 119.685 162.725L71.7768 114.757C70.8652 113.844 70.8651 112.363 71.7787 111.45L85.6535 97.6017C86.565 96.6909 88.0404 96.693 88.9499 97.6037L103.379 81.6657C103.109 81.3567 102.853 81.0189 102.598 80.6685C98.4784 75.1019 95.9746 65.9216 98.8946 55.5691C100.644 48.9413 104.276 43.9432 110.97 37.8697C111.559 37.3361 112.487 37.3093 113.086 37.8285L130.428 52.8722L133.844 55.8409C135.156 56.9803 136.724 57.7879 138.413 58.1896L192.482 71.0577C193.114 71.206 193.695 71.5294 194.151 71.9745L249.689 127.448C250.658 128.377 251.209 129.673 251.209 131.021V142.815C251.209 144.628 250.754 146.414 249.881 148.003L222.396 198.141C221.198 200.336 218.518 201.255 216.229 200.256L203.561 194.728H157.259C154.284 194.728 151.875 197.143 151.875 200.12V220.79C151.875 223.635 152.998 226.368 155 228.386L202.955 276.768C253.459 254.257 288.68 203.542 288.68 144.592C288.68 61.3355 218.439 -5.47937 134.086 0.355159L134.095 0.361342Z" fill="white"/>
<path d="M423.966 210.879H397.509V91.4396H353.604V67.8865H467.871V91.4396H423.966V210.879ZM509.751 210.879H483.484V109.391H509.751V210.879ZM578.592 252.433C549.451 252.433 529.512 238.646 529.512 216.433H555.395C555.586 224.858 564.597 231.561 578.4 231.561C594.889 231.561 603.516 221.986 603.516 207.816V194.411C597.382 203.794 586.646 209.348 572.649 209.348C545.041 209.348 525.677 188.283 525.677 157.837C525.677 127.198 545.233 106.134 572.265 106.134C587.987 106.134 600.641 113.22 606.585 124.326L608.693 109.391H629.399V207.625C629.399 234.816 609.46 252.433 578.592 252.433ZM577.825 187.901C592.972 187.901 603.516 175.646 603.516 157.645C603.516 140.028 592.972 127.773 577.825 127.773C562.871 127.773 552.326 140.028 552.326 157.837C552.326 175.646 562.871 187.901 577.825 187.901ZM698.616 213.943C666.982 213.943 645.317 191.923 645.317 160.518C645.317 127.581 667.174 106.134 696.699 106.134C725.841 106.134 745.78 126.623 746.354 159.752V165.879H671.008C672.925 181.582 683.47 192.306 698.808 192.306C709.545 192.306 717.405 187.327 720.664 178.517H745.972C740.412 200.922 722.965 213.943 698.616 213.943ZM672.158 148.454H719.515C716.638 135.433 708.586 127.964 696.699 127.964C684.812 127.964 675.61 135.624 672.158 148.454ZM788.349 210.879H762.082V109.391H783.172L786.432 129.688C792.951 115.517 804.837 108.05 821.517 108.05H825.735V133.326H821.517C800.619 133.326 788.349 144.049 788.349 162.432V210.879Z" fill="white"/>
<path d="M939.081 211.149H890V77.1064H939.081C979.536 77.1064 1007.91 104.299 1007.91 143.362C1007.91 183.383 979.536 211.149 939.081 211.149ZM916.459 100.659V187.406H940.807C964.198 187.406 980.493 169.405 980.493 143.362C980.493 118.66 964.198 100.659 940.807 100.659H916.459ZM1059.08 213.64C1035.49 213.64 1019.77 202.724 1019.96 183.383C1020.34 159.448 1044.31 154.086 1064.06 151.787C1079.01 149.873 1089.56 148.916 1089.56 141.064C1089.56 132.638 1083.22 127.276 1071.15 127.276C1058.5 127.276 1050.06 133.979 1048.72 143.936H1022.26C1024.56 121.723 1044.5 106.404 1071.53 106.404C1100.1 106.404 1115.06 121.341 1115.06 142.788V187.022C1115.06 189.894 1116.4 191.426 1119.85 191.426H1125.21V211.149H1113.51C1103.74 211.149 1096.83 207.512 1094.36 200.617C1093.77 199.469 1093.39 198.32 1093 196.98C1087.06 207.32 1076.13 213.64 1059.08 213.64ZM1064.83 193.724C1078.43 193.724 1089.56 186.639 1089.56 174.575V159.831C1086.1 165.767 1077.09 167.106 1067.12 168.447C1055.05 170.171 1046.22 171.894 1046.22 181.469C1046.22 189.319 1052.36 193.724 1064.83 193.724ZM1196.38 211.149H1182.57C1159.38 211.149 1146.73 200.043 1146.73 179.17V131.681H1129.65V109.661H1146.73V75H1172.99V109.661H1198.49V131.681H1172.99V176.682C1172.99 184.724 1177.02 189.128 1184.88 189.128H1196.38V211.149ZM1247.8 213.64C1224.22 213.64 1208.49 202.724 1208.69 183.383C1209.07 159.448 1233.03 154.086 1252.78 151.787C1267.73 149.873 1278.28 148.916 1278.28 141.064C1278.28 132.638 1271.96 127.276 1259.87 127.276C1247.22 127.276 1238.79 133.979 1237.44 143.936H1210.98C1213.29 121.723 1233.23 106.404 1260.26 106.404C1288.83 106.404 1303.78 121.341 1303.78 142.788V187.022C1303.78 189.894 1305.13 191.426 1308.57 191.426H1313.95V211.149H1302.25C1292.47 211.149 1285.57 207.512 1283.08 200.617C1282.51 199.469 1282.11 198.32 1281.74 196.98C1275.8 207.32 1264.86 213.64 1247.8 213.64ZM1253.55 193.724C1267.16 193.724 1278.28 186.639 1278.28 174.575V159.831C1274.83 165.767 1265.82 167.106 1255.85 168.447C1243.77 170.171 1234.95 171.894 1234.95 181.469C1234.95 189.319 1241.09 193.724 1253.55 193.724Z" fill="white"/>
<path d="M495.805 97.0261C504.22 97.0261 511.041 90.2048 511.041 81.7902C511.041 73.3756 504.22 66.5542 495.805 66.5542C487.391 66.5542 480.569 73.3756 480.569 81.7902C480.569 90.2048 487.391 97.0261 495.805 97.0261Z" fill="white"/>
</svg>
